<svg width="167" height="167" viewBox="0 0 167 167" fill="none" xmlns="http://www.w3.org/2000/svg">
<path fill-rule="evenodd" clip-rule="evenodd" d="M166.388 93.6584C166.258 93.6468 166.127 93.6314 165.996 93.6123C143.705 90.356 127.512 72.7146 124.495 52.1625H109.566C111.802 74.6019 128.546 102.367 161.199 108.387C161.853 108.507 162.468 108.716 163.035 108.998C164.614 104.068 165.748 98.9393 166.388 93.6584ZM157.686 121.861C117.804 114.008 97.8668 79.7108 95.6271 52.1625H80.2969C82.777 86.0646 103.557 121.046 148.581 135.818C152.058 131.499 155.114 126.825 157.686 121.861ZM137.968 146.791C104.139 133.838 83.152 110.02 73.1548 83.6126C71.035 89.3677 68.4196 94.8581 65.2958 100.091C55.8625 115.892 42.0234 128.959 24.0019 139.828C23.5161 140.121 23.0087 140.347 22.4904 140.51C37.7292 156.811 59.4247 167 83.5 167C104.312 167 123.346 159.386 137.968 146.791ZM14.4021 130.395C5.31231 117.027 0 100.884 0 83.5C0 37.3842 37.3842 0 83.5 0C112.947 0 138.833 15.2426 153.7 38.2681H130.934H102.392H73.0957C69.325 38.2681 66.2427 41.2761 66.1506 45.0457C65.6938 63.7544 61.3989 79.512 53.3655 92.9687C45.3231 106.441 33.3027 117.993 16.8262 127.93C15.7864 128.557 14.9698 129.413 14.4021 130.395ZM160.919 52.1597C164.388 60.7213 166.479 69.989 166.915 79.6874C152.228 77.0779 141.407 65.6648 138.598 52.1625H160.718C160.786 52.1625 160.852 52.1616 160.919 52.1597Z" fill="white"/>
</svg>
